<svg class="main-svg" xmlns="http://www.w3.org/2000/svg" xmlns:xlink="http://www.w3.org/1999/xlink" width="1100" height="900" style="" viewBox="0 0 1100 900"><rect x="0" y="0" width="1100" height="900" style="fill: rgb(255, 255, 255); fill-opacity: 1;"/><defs id="defs-c25728"><g class="clips"><clipPath id="clipc25728xyplot" class="plotclip"><rect width="775" height="592"/></clipPath><clipPath class="axesclip" id="clipc25728x"><rect x="80" y="0" width="775" height="900"/></clipPath><clipPath class="axesclip" id="clipc25728y"><rect x="0" y="100" width="1100" height="592"/></clipPath><clipPath class="axesclip" id="clipc25728xy"><rect x="80" y="100" width="775" height="592"/></clipPath></g><g class="gradients"><linearGradient x1="0" y1="1" x2="0" y2="0" gradientUnits="objectBoundingBox" id="gc25728-cbcoloraxis"><stop offset="0%" stop-color="rgb(0, 0, 131)" stop-opacity="1"/><stop offset="20%" stop-color="rgb(0, 60, 170)" stop-opacity="1"/><stop offset="40%" stop-color="rgb(5, 255, 255)" stop-opacity="1"/><stop offset="60%" stop-color="rgb(255, 255, 0)" stop-opacity="1"/><stop offset="80%" stop-color="rgb(250, 0, 0)" stop-opacity="1"/><stop offset="100%" stop-color="rgb(128, 0, 0)" stop-opacity="1"/></linearGradient></g><g class="patterns"/></defs><g class="bglayer"/><g class="layer-below"><g class="imagelayer"/><g class="shapelayer"/></g><g class="cartesianlayer"><g class="subplot xy"><g class="layer-subplot"><g class="shapelayer"/><g class="imagelayer"/></g><g class="minor-gridlayer"><g class="x"/><g class="y"/></g><g class="gridlayer"><g class="x"><path class="xgrid crisp" transform="translate(166.18,0)" d="M0,100v592" style="stroke: rgb(255, 255, 255); stroke-opacity: 1; stroke-width: 1px;"/><path class="xgrid crisp" transform="translate(237.18,0)" d="M0,100v592" style="stroke: rgb(255, 255, 255); stroke-opacity: 1; stroke-width: 1px;"/><path class="xgrid crisp" transform="translate(308.19,0)" d="M0,100v592" style="stroke: rgb(255, 255, 255); stroke-opacity: 1; stroke-width: 1px;"/><path class="xgrid crisp" transform="translate(379.19,0)" d="M0,100v592" style="stroke: rgb(255, 255, 255); stroke-opacity: 1; stroke-width: 1px;"/><path class="xgrid crisp" transform="translate(450.19,0)" d="M0,100v592" style="stroke: rgb(255, 255, 255); stroke-opacity: 1; stroke-width: 1px;"/><path class="xgrid crisp" transform="translate(521.19,0)" d="M0,100v592" style="stroke: rgb(255, 255, 255); stroke-opacity: 1; stroke-width: 1px;"/><path class="xgrid crisp" transform="translate(592.19,0)" d="M0,100v592" style="stroke: rgb(255, 255, 255); stroke-opacity: 1; stroke-width: 1px;"/><path class="xgrid crisp" transform="translate(663.19,0)" d="M0,100v592" style="stroke: rgb(255, 255, 255); stroke-opacity: 1; stroke-width: 1px;"/><path class="xgrid crisp" transform="translate(734.19,0)" d="M0,100v592" style="stroke: rgb(255, 255, 255); stroke-opacity: 1; stroke-width: 1px;"/><path class="xgrid crisp" transform="translate(805.19,0)" d="M0,100v592" style="stroke: rgb(255, 255, 255); stroke-opacity: 1; stroke-width: 1px;"/></g><g class="y"><path class="ygrid crisp" transform="translate(0,615.6)" d="M80,0h775" style="stroke: rgb(255, 255, 255); stroke-opacity: 1; stroke-width: 1px;"/><path class="ygrid crisp" transform="translate(0,483.89)" d="M80,0h775" style="stroke: rgb(255, 255, 255); stroke-opacity: 1; stroke-width: 1px;"/><path class="ygrid crisp" transform="translate(0,352.19)" d="M80,0h775" style="stroke: rgb(255, 255, 255); stroke-opacity: 1; stroke-width: 1px;"/><path class="ygrid crisp" transform="translate(0,220.48000000000002)" d="M80,0h775" style="stroke: rgb(255, 255, 255); stroke-opacity: 1; stroke-width: 1px;"/></g></g><g class="zerolinelayer"/><g class="layer-between"><g class="shapelayer"/><g class="imagelayer"/></g><path class="xlines-below"/><path class="ylines-below"/><g class="overlines-below"/><g class="xaxislayer-below"/><g class="yaxislayer-below"/><g class="overaxes-below"/><g class="overplot"><g class="xy" transform="translate(80,100)" clip-path="url(#clipc25728xyplot)"><g class="scatterlayer mlayer"><g class="trace scatter trace6cb823" style="stroke-miterlimit: 2; opacity: 1;"><g class="fills"/><g class="errorbars"/><g class="lines"/><g class="points"><path class="point" transform="translate(86.18,514.97)" d="M42.43,0A42.43,42.43 0 1,1 0,-42.43A42.43,42.43 0 0,1 42.43,0Z" style="opacity: 0.7; stroke-width: 1px; fill: rgb(128, 0, 0); fill-opacity: 1; stroke: rgb(255, 255, 255); stroke-opacity: 1;"/><path class="point" transform="translate(157.18,514.97)" d="M25.69,0A25.69,25.69 0 1,1 0,-25.69A25.69,25.69 0 0,1 25.69,0Z" style="opacity: 0.7; stroke-width: 1px; fill: rgb(3, 187, 225); fill-opacity: 1; stroke: rgb(255, 255, 255); stroke-opacity: 1;"/><path class="point" transform="translate(228.19,514.97)" d="M20.84,0A20.84,20.84 0 1,1 0,-20.84A20.84,20.84 0 0,1 20.84,0Z" style="opacity: 0.7; stroke-width: 1px; fill: rgb(0, 59, 170); fill-opacity: 1; stroke: rgb(255, 255, 255); stroke-opacity: 1;"/><path class="point" transform="translate(299.19,514.97)" d="M20.47,0A20.47,20.47 0 1,1 0,-20.47A20.47,20.47 0 0,1 20.47,0Z" style="opacity: 0.7; stroke-width: 1px; fill: rgb(0, 57, 168); fill-opacity: 1; stroke: rgb(255, 255, 255); stroke-opacity: 1;"/><path class="point" transform="translate(370.19,107.31)" d="M14.78,0A14.78,14.78 0 1,1 0,-14.78A14.78,14.78 0 0,1 14.78,0Z" style="opacity: 0.7; stroke-width: 1px; fill: rgb(0, 21, 145); fill-opacity: 1; stroke: rgb(255, 255, 255); stroke-opacity: 1;"/><path class="point" transform="translate(441.19,514.97)" d="M11.83,0A11.83,11.83 0 1,1 0,-11.83A11.83,11.83 0 0,1 11.83,0Z" style="opacity: 0.7; stroke-width: 1px; fill: rgb(0, 7, 136); fill-opacity: 1; stroke: rgb(255, 255, 255); stroke-opacity: 1;"/><path class="point" transform="translate(512.19,514.97)" d="M11.47,0A11.47,11.47 0 1,1 0,-11.47A11.47,11.47 0 0,1 11.47,0Z" style="opacity: 0.7; stroke-width: 1px; fill: rgb(0, 6, 135); fill-opacity: 1; stroke: rgb(255, 255, 255); stroke-opacity: 1;"/><path class="point" transform="translate(583.19,41.46)" d="M10.61,0A10.61,10.61 0 1,1 0,-10.61A10.61,10.61 0 0,1 10.61,0Z" style="opacity: 0.7; stroke-width: 1px; fill: rgb(0, 3, 133); fill-opacity: 1; stroke: rgb(255, 255, 255); stroke-opacity: 1;"/><path class="point" transform="translate(654.19,514.97)" d="M10.11,0A10.11,10.11 0 1,1 0,-10.11A10.11,10.11 0 0,1 10.11,0Z" style="opacity: 0.7; stroke-width: 1px; fill: rgb(0, 1, 132); fill-opacity: 1; stroke: rgb(255, 255, 255); stroke-opacity: 1;"/><path class="point" transform="translate(725.19,514.97)" d="M9.89,0A9.89,9.89 0 1,1 0,-9.89A9.89,9.89 0 0,1 9.89,0Z" style="opacity: 0.7; stroke-width: 1px; fill: rgb(0, 0, 131); fill-opacity: 1; stroke: rgb(255, 255, 255); stroke-opacity: 1;"/></g><g class="text"/></g></g></g></g><g class="zerolinelayer-above"/><path class="xlines-above crisp" d="M79,692.5H855" style="fill: none; stroke-width: 1px; stroke: rgb(0, 0, 0); stroke-opacity: 1;"/><path class="ylines-above crisp" d="M79.5,100V692" style="fill: none; stroke-width: 1px; stroke: rgb(0, 0, 0); stroke-opacity: 1;"/><g class="overlines-above"/><g class="xaxislayer-above"><g class="xtick"><text text-anchor="end" x="0" y="709.8" transform="translate(166.18,0) rotate(-45,0,702.8)" style="font-family: Cambria; font-size: 14px; fill: rgb(42, 63, 95); fill-opacity: 1; white-space: pre;">Data Analysts</text></g><g class="xtick"><text text-anchor="end" x="0" y="709.8" transform="translate(237.18,0) rotate(-45,0,702.8)" style="font-family: Cambria; font-size: 14px; fill: rgb(42, 63, 95); fill-opacity: 1; white-space: pre;">Unclassified</text></g><g class="xtick"><text text-anchor="end" x="0" y="709.8" transform="translate(308.19,0) rotate(-45,0,702.8)" style="font-family: Cambria; font-size: 14px; fill: rgb(42, 63, 95); fill-opacity: 1; white-space: pre;">Business Intelligence Analysts</text></g><g class="xtick"><text text-anchor="end" x="0" y="709.8" transform="translate(379.19,0) rotate(-45,0,702.8)" style="font-family: Cambria; font-size: 14px; fill: rgb(42, 63, 95); fill-opacity: 1; white-space: pre;">Enterprise Architects</text></g><g class="xtick"><text text-anchor="end" x="0" y="709.8" transform="translate(450.19,0) rotate(-45,0,702.8)" style="font-family: Cambria; font-size: 14px; fill: rgb(42, 63, 95); fill-opacity: 1; white-space: pre;">Oracle Cloud HCM Consultants</text></g><g class="xtick"><text text-anchor="end" x="0" y="709.8" transform="translate(521.19,0) rotate(-45,0,702.8)" style="font-family: Cambria; font-size: 14px; fill: rgb(42, 63, 95); fill-opacity: 1; white-space: pre;">Data Modelers</text></g><g class="xtick"><text text-anchor="end" x="0" y="709.8" transform="translate(592.19,0) rotate(-45,0,702.8)" style="font-family: Cambria; font-size: 14px; fill: rgb(42, 63, 95); fill-opacity: 1; white-space: pre;">Data Governance Analysts</text></g><g class="xtick"><text text-anchor="end" x="0" y="709.8" transform="translate(663.19,0) rotate(-45,0,702.8)" style="font-family: Cambria; font-size: 14px; fill: rgb(42, 63, 95); fill-opacity: 1; white-space: pre;">Data Analytics Engineers</text></g><g class="xtick"><text text-anchor="end" x="0" y="709.8" transform="translate(734.19,0) rotate(-45,0,702.8)" style="font-family: Cambria; font-size: 14px; fill: rgb(42, 63, 95); fill-opacity: 1; white-space: pre;">ERP Business Analysts</text></g><g class="xtick"><text text-anchor="end" x="0" y="709.8" transform="translate(805.19,0) rotate(-45,0,702.8)" style="font-family: Cambria; font-size: 14px; fill: rgb(42, 63, 95); fill-opacity: 1; white-space: pre;">Data Quality Analysts</text></g></g><g class="yaxislayer-above"><g class="ytick"><text text-anchor="end" x="76.2" y="4.8999999999999995" transform="translate(0,615.6)" style="font-family: Cambria; font-size: 14px; fill: rgb(42, 63, 95); fill-opacity: 1; white-space: pre;">115k</text></g><g class="ytick"><text text-anchor="end" x="76.2" y="4.8999999999999995" style="font-family: Cambria; font-size: 14px; fill: rgb(42, 63, 95); fill-opacity: 1; white-space: pre;" transform="translate(0,483.89)">120k</text></g><g class="ytick"><text text-anchor="end" x="76.2" y="4.8999999999999995" style="font-family: Cambria; font-size: 14px; fill: rgb(42, 63, 95); fill-opacity: 1; white-space: pre;" transform="translate(0,352.19)">125k</text></g><g class="ytick"><text text-anchor="end" x="76.2" y="4.8999999999999995" style="font-family: Cambria; font-size: 14px; fill: rgb(42, 63, 95); fill-opacity: 1; white-space: pre;" transform="translate(0,220.48000000000002)">130k</text></g></g><g class="overaxes-above"/></g></g><g class="polarlayer"/><g class="smithlayer"/><g class="ternarylayer"/><g class="geolayer"/><g class="funnelarealayer"/><g class="pielayer"/><g class="iciclelayer"/><g class="treemaplayer"/><g class="sunburstlayer"/><g class="glimages"/><defs id="topdefs-c25728"><g class="clips"/></defs><g class="layer-above"><g class="imagelayer"/><g class="shapelayer"/></g><g class="infolayer"><g class="cbcoloraxis colorbar" transform="translate(80,100)"><rect class="cbbg" x="791" y="0" width="217.451171875" height="592" style="fill: rgb(0, 0, 0); fill-opacity: 0; stroke: rgb(68, 68, 68); stroke-opacity: 1; stroke-width: 0;"/><g class="cbfills" transform="translate(0,35)"><rect class="cbfill gradient_filled" style="fill: url('#gc25728-cbcoloraxis');" x="801" y="0" width="30" height="547"/></g><g class="cblines" transform="translate(0,35)"/><g class="cbaxis crisp" transform="translate(0,-100)"><g class="ycbcoloraxistick"><text text-anchor="start" x="834.3" y="4.8999999999999995" transform="translate(0,646.11)" style="font-family: Cambria; font-size: 14px; fill: rgb(42, 63, 95); fill-opacity: 1; white-space: pre;">1000</text></g><g class="ycbcoloraxistick"><text text-anchor="start" x="834.3" y="4.8999999999999995" style="font-family: Cambria; font-size: 14px; fill: rgb(42, 63, 95); fill-opacity: 1; white-space: pre;" transform="translate(0,578.78)">2000</text></g><g class="ycbcoloraxistick"><text text-anchor="start" x="834.3" y="4.8999999999999995" style="font-family: Cambria; font-size: 14px; fill: rgb(42, 63, 95); fill-opacity: 1; white-space: pre;" transform="translate(0,511.45)">3000</text></g><g class="ycbcoloraxistick"><text text-anchor="start" x="834.3" y="4.8999999999999995" style="font-family: Cambria; font-size: 14px; fill: rgb(42, 63, 95); fill-opacity: 1; white-space: pre;" transform="translate(0,444.12)">4000</text></g><g class="ycbcoloraxistick"><text text-anchor="start" x="834.3" y="4.8999999999999995" style="font-family: Cambria; font-size: 14px; fill: rgb(42, 63, 95); fill-opacity: 1; white-space: pre;" transform="translate(0,376.78999999999996)">5000</text></g><g class="ycbcoloraxistick"><text text-anchor="start" x="834.3" y="4.8999999999999995" style="font-family: Cambria; font-size: 14px; fill: rgb(42, 63, 95); fill-opacity: 1; white-space: pre;" transform="translate(0,309.46000000000004)">6000</text></g><g class="ycbcoloraxistick"><text text-anchor="start" x="834.3" y="4.8999999999999995" style="font-family: Cambria; font-size: 14px; fill: rgb(42, 63, 95); fill-opacity: 1; white-space: pre;" transform="translate(0,242.12)">7000</text></g><g class="ycbcoloraxistick"><text text-anchor="start" x="834.3" y="4.8999999999999995" style="font-family: Cambria; font-size: 14px; fill: rgb(42, 63, 95); fill-opacity: 1; white-space: pre;" transform="translate(0,174.79)">8000</text></g></g><g class="cbtitleunshift" transform="translate(-80,-100)"><g class="cbtitle" transform=""><text class="ycbcoloraxistitle" x="880.5" y="125.75" text-anchor="start" style="opacity: 1; font-family: Cambria; font-size: 17px; fill: rgb(42, 63, 95); fill-opacity: 1; white-space: pre;">Number of Job Postings</text></g></g><rect class="cboutline" x="801" y="35" width="30" height="547" style="stroke: rgb(68, 68, 68); stroke-opacity: 1; fill: none; stroke-width: 0;"/></g><g class="g-gtitle"><text class="gtitle" x="55" y="50" text-anchor="start" dy="0em" style="opacity: 1; font-family: Cambria; font-size: 25px; fill: rgb(42, 63, 95); fill-opacity: 1; white-space: pre;">Median Salary by ONET Occupation Type (Bubble Chart)</text></g><g class="g-xtitle"><text class="xtitle" x="467.5" y="887.790625" text-anchor="middle" style="opacity: 1; font-family: Cambria; font-size: 17px; fill: rgb(42, 63, 95); fill-opacity: 1; white-space: pre;">ONET Occupation</text></g><g class="g-ytitle"><text class="ytitle" transform="rotate(-90,20.906445312499997,396)" x="20.906445312499997" y="396" text-anchor="middle" style="opacity: 1; font-family: Cambria; font-size: 17px; fill: rgb(42, 63, 95); fill-opacity: 1; white-space: pre;">Median Salary</text></g></g></svg>